# File created by Blade
# Date/Time:  Thu Jan 22 16:52:56 2015
# Frame Rate: 120.000 fps
#------------------------------------------------------
:FULLY-SPECIFIED
:DEGREES
854
root 3.037219 3.531294 -0.552308 -37.308947 -1.983498 10.509615
RightUpLeg -47.640666 -26.208550 -35.120720
RightLeg 3.879456 -0.000000 -0.000000
RightFoot -4.937217 -20.639494 30.607989
RightToeBase -10.770271 -0.000000 0.000000
LeftUpLeg -39.862911 29.822656 18.089957
LeftLeg -0.056090 -0.000000 0.000000
LeftFoot 10.822140 24.268878 -32.672399
LeftToeBase 0.852179 -0.000000 -0.000000
Spine 62.389489 -18.931226 20.059362
RightShoulder 11.006474 22.135375 -29.524934
RightArm 30.385812 19.179256 32.650928
RightForeArm -20.136763 -0.000000 21.335256
RightHand 5.814489 0.000000 -17.510934
RightHandThumb1 -24.326973 -0.000000 -32.862282
LeftShoulder -23.314030 6.007274 50.732639
LeftArm 120.365179 -62.956034 -72.944437
LeftForeArm 33.758623 0.000000 20.999892
LeftHand -18.020598 -0.000000 2.289107
LeftHandThumb1 -26.253704 0.000000 33.147579
Head 9.207634 -22.505489 34.722801
855
root 3.033949 3.539022 -0.547496 -37.243442 -2.028318 10.664644
RightUpLeg -47.855802 -26.251738 -35.042713
RightLeg 3.908386 -0.000000 -0.000000
RightFoot -4.819842 -20.642595 30.552777
RightToeBase -10.930643 -0.000000 0.000000
LeftUpLeg -39.813608 29.941644 18.018257
LeftLeg -0.118204 -0.000000 0.000000
LeftFoot 10.810858 24.295149 -32.762208
LeftToeBase 0.835816 -0.000000 -0.000000
Spine 62.440669 -18.960677 19.993877
RightShoulder 11.020736 23.181564 -29.488921
RightArm 29.990936 18.597297 32.746693
RightForeArm -20.502459 -0.000000 21.508949
RightHand 5.818765 0.000000 -17.521757
RightHandThumb1 -24.326973 -0.000000 -32.862282
LeftShoulder -23.313747 5.838715 50.831986
LeftArm 120.834660 -62.613746 -72.884931
LeftForeArm 34.057296 -0.000000 20.969756
LeftHand -17.784608 -0.000000 2.013074
LeftHandThumb1 -26.253704 0.000000 33.147579
Head 9.392349 -22.448674 34.823172
856
root 3.030260 3.546661 -0.542395 -37.189057 -2.072326 10.806808
RightUpLeg -48.060278 -26.293248 -34.959473
RightLeg 3.956880 -0.000000 -0.000000
RightFoot -4.759929 -20.688975 30.541838
RightToeBase -11.113294 -0.000000 0.000000
LeftUpLeg -39.761095 30.061585 17.953347
LeftLeg -0.170879 -0.000000 0.000000
LeftFoot 10.822117 24.326626 -32.815673
LeftToeBase 0.785389 -0.000000 -0.000000
Spine 62.500226 -18.998639 19.927931
RightShoulder 11.058608 24.286917 -29.460693
RightArm 29.522523 17.972714 32.858624
RightForeArm -20.886778 0.000000 21.683975
RightHand 5.884166 0.000000 -17.563786
RightHandThumb1 -24.326973 -0.000000 -32.862282
LeftShoulder -23.273069 5.682163 50.932576
LeftArm 121.255357 -62.355973 -72.784519
LeftForeArm 34.509303 -0.000000 20.924093
LeftHand -17.807388 -0.000000 1.990778
LeftHandThumb1 -26.253704 0.000000 33.147579
Head 9.589888 -22.291661 34.948222
857
root 3.025451 3.549162 -0.538020 -37.109383 -2.156764 10.942370
RightUpLeg -48.302656 -26.296276 -34.858944
RightLeg 4.012324 -0.000000 -0.000000
RightFoot -4.719790 -20.745366 30.740471
RightToeBase -11.332940 -0.000000 0.000000
LeftUpLeg -39.745798 30.216501 17.918908
LeftLeg -0.198774 -0.000000 0.000000
LeftFoot 10.834836 24.396760 -32.877039
LeftToeBase 0.796096 -0.000000 -0.000000
Spine 62.521245 -19.014028 19.896292
RightShoulder 11.126239 25.339801 -29.440083
RightArm 29.092878 17.425483 33.021516
RightForeArm -21.226951 0.000000 21.849603
RightHand 5.839048 -0.000000 -17.564176
RightHandThumb1 -24.326973 -0.000000 -32.862282
LeftShoulder -23.206186 5.694868 50.933621
LeftArm 121.887344 -62.214315 -72.865549
LeftForeArm 35.166563 -0.000000 20.941981
LeftHand -17.803417 0.000000 1.946445
LeftHandThumb1 -26.253704 0.000000 33.147579
Head 9.846411 -22.112124 35.024027
858
root 3.015771 3.555120 -0.531706 -37.055809 -2.262269 11.061307
RightUpLeg -48.517517 -26.277053 -34.736968
RightLeg 4.053884 -0.000000 -0.000000
RightFoot -4.592670 -20.894045 30.449573
RightToeBase -11.294621 -0.000000 0.000000
LeftUpLeg -39.698440 30.388003 17.921959
LeftLeg -0.218926 -0.000000 0.000000
LeftFoot 10.905339 24.449078 -32.858653
LeftToeBase 0.711871 -0.000000 -0.000000
Spine 62.608047 -19.032289 19.847061
RightShoulder 11.210730 26.537058 -29.346671
RightArm 28.632928 16.753093 33.143032
RightForeArm -21.595869 0.000000 21.937467
RightHand 5.870894 -0.000000 -17.759602
RightHandThumb1 -24.326973 -0.000000 -32.862282
LeftShoulder -23.237138 5.549286 51.014505
LeftArm 122.062590 -61.993178 -72.485236
LeftForeArm 35.637546 0.000000 20.887472
LeftHand -17.732090 0.000000 1.931133
LeftHandThumb1 -26.253704 0.000000 33.147579
Head 10.047214 -21.913559 35.095590
